<?xml version="1.0" encoding="UTF-8"?>
<svg width="39px" height="52px" viewBox="0 0 39 52" version="1.1" xmlns="http://www.w3.org/2000/svg" xmlns:xlink="http://www.w3.org/1999/xlink">
    <!-- Generator: Sketch 41.2 (35397) - http://www.bohemiancoding.com/sketch -->
    <title>Fill 1</title>
    <desc>Created with Sketch.</desc>
    <defs></defs>
    <g id="Page-1" stroke="none" stroke-width="1" fill="none" fill-rule="evenodd">
        <g id="trips_megamenu" transform="translate(-130.000000, -26.000000)" fill="#2A2B2A">
            <g id="Page-1" transform="translate(130.000000, 26.000000)">
                <path d="M19.462199,48.5590717 L6.72966906,35.728317 L28.5850288,13.7048453 L36.4903453,21.6716377 L36.4903453,31.3995623 L19.462199,48.5590717 Z M2.43405276,21.6711472 L10.3393693,13.7048453 L17.7413237,21.1639019 L5.00879376,33.994166 L2.43405276,31.3995623 L2.43405276,21.6711472 Z M36.4903453,2.45322264 L36.4903453,18.2028453 L29.445223,11.1033736 C28.9890815,10.6427321 28.180976,10.6427321 27.7243477,11.1033736 L19.462199,19.4292604 L11.2000504,11.1033736 C10.7434221,10.6427321 9.93531655,10.6427321 9.47917506,11.1033736 L2.43405276,18.2028453 L2.43405276,2.45322264 L36.4903453,2.45322264 Z M37.7073717,0.00039245283 L1.21702638,0.00039245283 C0.544741007,0.00039245283 0,0.549335849 0,1.22680755 L0,31.9072981 C0,32.2325434 0.128031175,32.5445434 0.356345324,32.7746189 L18.601518,51.1605434 C18.8390815,51.3999396 19.1506403,51.5196377 19.462199,51.5196377 C19.7737578,51.5196377 20.0853165,51.3999396 20.3228801,51.1605434 L38.5680528,32.7746189 C38.7963669,32.5445434 38.9243981,32.2325434 38.9243981,31.9072981 L38.9243981,1.22680755 C38.9243981,0.549335849 38.3796571,0.00039245283 37.7073717,0.00039245283 L37.7073717,0.00039245283 Z" id="Fill-1"></path>
            </g>
        </g>
    </g>
</svg>