<?xml version="1.0" encoding="UTF-8"?>
<svg width="90px" height="76px" viewBox="0 0 90 76" version="1.1" xmlns="http://www.w3.org/2000/svg" xmlns:xlink="http://www.w3.org/1999/xlink">
    <!-- Generator: Sketch 47.1 (45422) - http://www.bohemiancoding.com/sketch -->
    <title>Page 1</title>
    <desc>Created with Sketch.</desc>
    <defs>
        <polygon id="path-1" points="0 0.137849724 0 11.1586895 12.9735752 11.1586895 12.9735752 0.137849724 1.14528399e-20 0.137849724"></polygon>
        <polygon id="path-3" points="0.202774648 11.7569061 8.63446479 11.7569061 8.63446479 0.379706077 0.202774648 0.379706077 0.202774648 11.7569061"></polygon>
        <polygon id="path-5" points="4.54328497 11.7569061 8.70338028 11.7569061 8.70338028 0.37958011 0.383189655 0.37958011 0.383189655 11.7569061 4.54328497 11.7569061"></polygon>
        <polygon id="path-7" points="42.1522817 0.16039779 0.232140845 0.16039779 0.232140845 54.8761149 42.1522817 54.8761149"></polygon>
    </defs>
    <g id="Page-1" stroke="none" stroke-width="1" fill="none" fill-rule="evenodd">
        <g id="Frontpage" transform="translate(-143.000000, -14.000000)">
            <g id="Page-1" transform="translate(143.000000, 14.000000)">
                <g id="Group-3" transform="translate(0.000000, 64.502586)">
                    <mask id="mask-2" fill="white">
                        <use xlink:href="#path-1"></use>
                    </mask>
                    <g id="Clip-2"></g>
                    <path d="M8.82705634,11.1586895 C8.7294507,11.1586895 8.66395775,11.0940265 8.63142254,10.9966122 L6.51156338,3.46043536 L6.4781831,3.46043536 L4.34226761,10.9966122 C4.30973239,11.0940265 4.24423944,11.1586895 4.14621127,11.1586895 L2.92297183,11.1586895 C2.8253662,11.1586895 2.76029577,11.0940265 2.72733803,10.9966122 L0.00367605634,0.299927072 C-0.0123802817,0.202932597 0.0201549296,0.137849724 0.134661972,0.137849724 L1.66761972,0.137849724 C1.78128169,0.137849724 1.84635211,0.202932597 1.86325352,0.299927072 L3.62438028,7.7227337 L3.65733803,7.7227337 L5.72860563,0.299927072 C5.76071831,0.202932597 5.82578873,0.137849724 5.92423944,0.137849724 L7.06550704,0.137849724 C7.18001408,0.137849724 7.22902817,0.202932597 7.26156338,0.299927072 L9.38142254,7.7227337 L9.41438028,7.7227337 L11.126493,0.299927072 C11.1429718,0.186556906 11.2245211,0.137849724 11.3221268,0.137849724 L12.8390282,0.137849724 C12.9531127,0.137849724 12.9860704,0.202932597 12.9695915,0.299927072 L10.2619859,10.9966122 C10.2459296,11.0940265 10.1643803,11.1586895 10.0667746,11.1586895 L8.82705634,11.1586895 Z" id="Fill-1" fill="#000000" mask="url(#mask-2)"></path>
                </g>
                <path d="M14.1269155,64.8023867 C14.1269155,64.7053923 14.1919859,64.6407293 14.2900141,64.6407293 L21.2377606,64.6407293 C21.3357887,64.6407293 21.4008592,64.7053923 21.4008592,64.8023867 L21.4008592,66.1964199 C21.4008592,66.2934144 21.3357887,66.3584972 21.2377606,66.3584972 L16.149169,66.3584972 C16.0840986,66.3584972 16.0515634,66.3908287 16.0515634,66.4559116 L16.0515634,69.1457238 C16.0515634,69.2108066 16.0840986,69.2431381 16.149169,69.2431381 L20.4387465,69.2431381 C20.5363521,69.2431381 20.6014225,69.308221 20.6014225,69.4052155 L20.6014225,70.7992486 C20.6014225,70.8962431 20.5363521,70.9609061 20.4387465,70.9609061 L16.149169,70.9609061 C16.0840986,70.9609061 16.0515634,70.9936575 16.0515634,71.0583204 L16.0515634,73.8459669 C16.0515634,73.9110497 16.0840986,73.9433812 16.149169,73.9433812 L21.2377606,73.9433812 C21.3357887,73.9433812 21.4008592,74.0080442 21.4008592,74.1054586 L21.4008592,75.4990718 C21.4008592,75.5964862 21.3357887,75.6611492 21.2377606,75.6611492 L14.2900141,75.6611492 C14.1919859,75.6611492 14.1269155,75.5964862 14.1269155,75.4990718 L14.1269155,64.8023867 Z" id="Fill-4" fill="#000000"></path>
                <path d="M22.5095493,74.3809061 C22.4444789,74.3158232 22.4115211,74.2188287 22.4765915,74.1373702 L23.4877183,72.9709171 C23.5532113,72.8898785 23.6508169,72.8898785 23.7158873,72.9545414 C24.4337746,73.5218122 25.493493,74.1214144 26.7332113,74.1214144 C28.0544789,74.1214144 28.8209577,73.4571492 28.8209577,72.5333923 C28.8209577,71.7389613 28.331662,71.2203978 26.7982817,71.0096133 L26.2113803,70.9289945 C24.0750423,70.6367514 22.8682817,69.616 22.8682817,67.784442 C22.8682817,65.7912265 24.336169,64.4622762 26.6195493,64.4622762 C28.0054648,64.4622762 29.3267324,64.8998011 30.2072958,65.5640663 C30.2888451,65.6291492 30.3049014,65.6938122 30.239831,65.7912265 L29.4568732,66.9904309 C29.3918028,67.0714696 29.3102535,67.0878453 29.2287042,67.0391381 C28.331662,66.4554917 27.5001127,66.1804641 26.5701127,66.1804641 C25.4449014,66.1804641 24.8250423,66.7960221 24.8250423,67.6546961 C24.8250423,68.4167956 25.3633521,68.9353591 26.8637746,69.1457238 L27.4506761,69.2271823 C29.5874366,69.5185856 30.761662,70.5238011 30.761662,72.4200221 C30.761662,74.3809061 29.3427887,75.8396022 26.5865915,75.8396022 C24.9556056,75.8396022 23.3736338,75.1912928 22.5095493,74.3809061" id="Fill-6" fill="#000000"></path>
                <path d="M34.8055352,75.6612751 C34.7083521,75.6612751 34.6424366,75.5966122 34.6424366,75.4991978 L34.6424366,66.4556177 C34.6424366,66.3909547 34.6099014,66.3582033 34.544831,66.3582033 L31.6420141,66.3582033 C31.5435634,66.3582033 31.478493,66.2935403 31.478493,66.196126 L31.478493,64.8025127 C31.478493,64.7055182 31.5435634,64.6404354 31.6420141,64.6404354 L39.5679296,64.6404354 C39.6659577,64.6404354 39.7310282,64.7055182 39.7310282,64.8025127 L39.7310282,66.196126 C39.7310282,66.2935403 39.6659577,66.3582033 39.5679296,66.3582033 L36.6646901,66.3582033 C36.5996197,66.3582033 36.5670845,66.3909547 36.5670845,66.4556177 L36.5670845,75.4991978 C36.5670845,75.5966122 36.5020141,75.6612751 36.4039859,75.6612751 L34.8055352,75.6612751 Z" id="Fill-8" fill="#000000"></path>
                <path d="M46.6130282,75.6612751 C46.5154225,75.6612751 46.4499296,75.5966122 46.4499296,75.4991978 L46.4499296,66.4556177 C46.4499296,66.3909547 46.4173944,66.3582033 46.3523239,66.3582033 L43.449507,66.3582033 C43.3510563,66.3582033 43.2859859,66.2935403 43.2859859,66.196126 L43.2859859,64.8025127 C43.2859859,64.7055182 43.3510563,64.6404354 43.449507,64.6404354 L51.3754225,64.6404354 C51.4734507,64.6404354 51.5385211,64.7055182 51.5385211,64.8025127 L51.5385211,66.196126 C51.5385211,66.2935403 51.4734507,66.3582033 51.3754225,66.3582033 L48.4721831,66.3582033 C48.4071127,66.3582033 48.3745775,66.3909547 48.3745775,66.4556177 L48.3745775,75.4991978 C48.3745775,75.5966122 48.309507,75.6612751 48.2114789,75.6612751 L46.6130282,75.6612751 Z" id="Fill-10" fill="#000000"></path>
                <g id="Group-14" transform="translate(51.971831, 64.082696)">
                    <mask id="mask-4" fill="white">
                        <use xlink:href="#path-3"></use>
                    </mask>
                    <g id="Clip-13"></g>
                    <path d="M6.48164789,8.59652376 C6.61221127,8.19133039 6.67728169,7.62405967 6.67728169,6.06836906 C6.67728169,4.49630276 6.61221127,3.94498785 6.48164789,3.54021436 C6.17150704,2.64836906 5.51911268,2.09747403 4.41038028,2.09747403 C3.31728169,2.09747403 2.66488732,2.64836906 2.35516901,3.54021436 C2.22502817,3.94498785 2.15953521,4.49630276 2.15953521,6.06836906 C2.15953521,7.62405967 2.22502817,8.19133039 2.35516901,8.59652376 C2.66488732,9.48794917 3.31728169,10.0388442 4.41038028,10.0388442 C5.51911268,10.0388442 6.17150704,9.48794917 6.48164789,8.59652376 M0.496014085,9.09913149 C0.26784507,8.41807072 0.202774648,7.80251271 0.202774648,6.06836906 C0.202774648,4.33422541 0.26784507,3.71824751 0.496014085,3.03760663 C1.06685915,1.28708729 2.50221127,0.379706077 4.41038028,0.379706077 C6.33460563,0.379706077 7.76995775,1.28708729 8.34038028,3.03760663 C8.56897183,3.71824751 8.63446479,4.33422541 8.63446479,6.06836906 C8.63446479,7.80251271 8.56897183,8.41807072 8.34038028,9.09913149 C7.76995775,10.8492309 6.33460563,11.757032 4.41038028,11.757032 C2.50221127,11.757032 1.06685915,10.8492309 0.496014085,9.09913149" id="Fill-12" fill="#000000" mask="url(#mask-4)"></path>
                </g>
                <g id="Group-17" transform="translate(62.112676, 64.502586)" fill="#000000">
                    <path d="M6.46761972,7.25279337 L6.46761972,0.299843094 C6.46761972,0.202848619 6.53311268,0.138185635 6.63114085,0.138185635 L8.22959155,0.138185635 C8.32719718,0.138185635 8.39269014,0.202848619 8.39269014,0.299843094 L8.39269014,7.28512486 C8.39269014,9.84603094 6.64719718,11.3370586 4.29874648,11.3370586 C1.96719718,11.3370586 0.221704225,9.84603094 0.221704225,7.28512486 L0.221704225,0.299843094 C0.221704225,0.202848619 0.286774648,0.138185635 0.384802817,0.138185635 L1.98325352,0.138185635 C2.08085915,0.138185635 2.14592958,0.202848619 2.14592958,0.299843094 L2.14592958,7.25279337 C2.14592958,8.77615249 3.04339437,9.61887072 4.29874648,9.61887072 C5.571,9.61887072 6.46761972,8.77615249 6.46761972,7.25279337" id="Fill-15"></path>
                </g>
                <path d="M78.4797465,67.9306475 C78.4797465,66.9745591 77.7952394,66.3581613 76.7836901,66.3581613 L74.4191831,66.3581613 C74.3536901,66.3581613 74.3207324,66.3909127 74.3207324,66.4555757 L74.3207324,69.3893436 C74.3207324,69.4540066 74.3536901,69.486758 74.4191831,69.486758 L76.7836901,69.486758 C77.7952394,69.486758 78.4797465,68.8703602 78.4797465,67.9306475 L78.4797465,67.9306475 Z M78.6918592,75.6612331 C78.5612958,75.6612331 78.4962254,75.612526 78.4476338,75.4991558 L76.3269296,71.2041061 L74.4191831,71.2041061 C74.3536901,71.2041061 74.3207324,71.2368575 74.3207324,71.3015204 L74.3207324,75.4991558 C74.3207324,75.5965702 74.255662,75.6612331 74.1576338,75.6612331 L72.5596056,75.6612331 C72.462,75.6612331 72.3969296,75.5965702 72.3969296,75.4991558 L72.3969296,64.8024707 C72.3969296,64.7054762 72.462,64.6408133 72.5596056,64.6408133 L76.8491831,64.6408133 C78.887493,64.6408133 80.3879155,65.9857193 80.3879155,67.9306475 C80.3879155,69.372968 79.5559437,70.4911337 78.2841127,70.9609901 L80.616507,75.4508685 C80.6815775,75.5638188 80.616507,75.6612331 80.502,75.6612331 L78.6918592,75.6612331 Z" id="Fill-18" fill="#000000"></path>
                <g id="Group-22" transform="translate(81.126761, 64.082696)">
                    <mask id="mask-6" fill="white">
                        <use xlink:href="#path-5"></use>
                    </mask>
                    <g id="Clip-21"></g>
                    <path d="M0.451478873,10.2982099 C0.386408451,10.2331271 0.353450704,10.1361326 0.418521127,10.054674 L1.42964789,8.88822099 C1.49514085,8.80718232 1.59274648,8.80718232 1.6578169,8.8718453 C2.37570423,9.43911602 3.43542254,10.0387182 4.67556338,10.0387182 C5.99640845,10.0387182 6.76330986,9.37445304 6.76330986,8.45069613 C6.76330986,7.65626519 6.27359155,7.13770166 4.74021127,6.92691713 L4.15373239,6.84629834 C2.01697183,6.55405525 0.810211268,5.53330387 0.810211268,3.70174586 C0.810211268,1.70853039 2.27767606,0.37958011 4.56147887,0.37958011 C5.94739437,0.37958011 7.26866197,0.817104972 8.14922535,1.48137017 C8.23077465,1.54645304 8.24683099,1.61111602 8.18176056,1.70853039 L7.39880282,2.90773481 C7.33373239,2.98877348 7.2521831,3.00514917 7.1706338,2.95644199 C6.27359155,2.37279558 5.44204225,2.09776796 4.51204225,2.09776796 C3.38683099,2.09776796 2.76697183,2.71332597 2.76697183,3.572 C2.76697183,4.33409945 3.30528169,4.85266298 4.80612676,5.06302762 L5.39260563,5.14448619 C7.5293662,5.4358895 8.70359155,6.44110497 8.70359155,8.33732597 C8.70359155,10.2982099 7.28514085,11.7569061 4.52809859,11.7569061 C2.89753521,11.7569061 1.31556338,11.1085967 0.451478873,10.2982099" id="Fill-20" fill="#000000" mask="url(#mask-6)"></path>
                </g>
                <g id="Group-25" transform="translate(25.352113, 0.259492)">
                    <mask id="mask-8" fill="white">
                        <use xlink:href="#path-7"></use>
                    </mask>
                    <g id="Clip-24"></g>
                    <path d="M21.192,51.7315624 L7.47988732,38.1048884 L31.0167887,14.7153635 L39.5308732,23.176137 L39.5308732,33.5075182 L21.192,51.7315624 Z M2.85312676,23.176137 L11.3672113,14.7153635 L19.338338,22.636579 L5.62622535,36.263253 L2.85312676,33.5075182 L2.85312676,23.176137 Z M39.5308732,2.76530829 L39.5308732,19.4924464 L31.9434085,11.9524906 C31.452,11.4633193 30.582,11.4633193 30.0905915,11.9524906 L21.192,20.7949436 L12.293831,11.9524906 C11.802,11.4633193 10.932,11.4633193 10.4405915,11.9524906 L2.85312676,19.4920265 L2.85312676,2.76530829 L39.5308732,2.76530829 Z M40.842,0.160313812 L1.54242254,0.160313812 C0.818197183,0.160313812 0.232140845,0.743540331 0.232140845,1.46281105 L0.232140845,34.0470762 C0.232140845,34.3926453 0.369887324,34.7235182 0.615802817,34.9678939 L20.2653803,54.4944354 C20.5210141,54.7488884 20.856507,54.8761149 21.192,54.8761149 C21.527493,54.8761149 21.8629859,54.7488884 22.1186197,54.4944354 L41.7686197,34.9678939 C42.0145352,34.7235182 42.1522817,34.3926453 42.1522817,34.0470762 L42.1522817,1.46281105 C42.1522817,0.743540331 41.5658028,0.160313812 40.842,0.160313812 L40.842,0.160313812 Z" id="Fill-23" fill="#000000" mask="url(#mask-8)"></path>
                </g>
            </g>
        </g>
    </g>
</svg>