<?xml version="1.0" encoding="UTF-8"?>
<svg width="204px" height="52px" viewBox="0 0 204 52" version="1.1" xmlns="http://www.w3.org/2000/svg" xmlns:xlink="http://www.w3.org/1999/xlink">
    <!-- Generator: Sketch 41.2 (35397) - http://www.bohemiancoding.com/sketch -->
    <title>Page 1</title>
    <desc>Created with Sketch.</desc>
    <defs></defs>
    <g id="Page-1" stroke="none" stroke-width="1" fill="none" fill-rule="evenodd">
        <g id="Frontpage" transform="translate(-130.000000, -26.000000)">
            <g id="Page-1" transform="translate(130.000000, 26.000000)">
                <path d="M19.462199,48.5590717 L6.72966906,35.728317 L28.5850288,13.7048453 L36.4903453,21.6716377 L36.4903453,31.3995623 L19.462199,48.5590717 Z M2.43405276,21.6711472 L10.3393693,13.7048453 L17.7413237,21.1639019 L5.00879376,33.994166 L2.43405276,31.3995623 L2.43405276,21.6711472 Z M36.4903453,2.45322264 L36.4903453,18.2028453 L29.445223,11.1033736 C28.9890815,10.6427321 28.180976,10.6427321 27.7243477,11.1033736 L19.462199,19.4292604 L11.2000504,11.1033736 C10.7434221,10.6427321 9.93531655,10.6427321 9.47917506,11.1033736 L2.43405276,18.2028453 L2.43405276,2.45322264 L36.4903453,2.45322264 Z M37.7073717,0.00039245283 L1.21702638,0.00039245283 C0.544741007,0.00039245283 0,0.549335849 0,1.22680755 L0,31.9072981 C0,32.2325434 0.128031175,32.5445434 0.356345324,32.7746189 L18.601518,51.1605434 C18.8390815,51.3999396 19.1506403,51.5196377 19.462199,51.5196377 C19.7737578,51.5196377 20.0853165,51.3999396 20.3228801,51.1605434 L38.5680528,32.7746189 C38.7963669,32.5445434 38.9243981,32.2325434 38.9243981,31.9072981 L38.9243981,1.22680755 C38.9243981,0.549335849 38.3796571,0.00039245283 37.7073717,0.00039245283 L37.7073717,0.00039245283 Z" id="Fill-1" fill="#2A2B2A"></path>
                <path d="M72.8264204,18.0677925 L69.1105954,32.071 L65.2112429,32.071 L63.2771446,24.8896038 C63.1004324,24.2400943 62.8935379,23.3717925 62.6559743,22.2842075 L62.4627106,21.422283 L62.3707034,21.422283 L62.1672165,22.2940189 L61.9739528,23.1559434 C61.8313173,23.7377547 61.6789456,24.3185849 61.515864,24.8999057 L59.5306506,32.071 L55.6721902,32.071 L52.0683317,18.0677925 L54.7564995,18.0677925 L56.7616722,25.7515283 C56.8838616,26.2440566 57.0362333,26.9244717 57.2197609,27.7927736 L57.4339576,28.8190377 L57.6374444,29.8448113 L57.7284779,29.8448113 C57.8370367,29.3934906 57.9188209,29.051566 57.9728568,28.8190377 L58.2172357,27.803566 C58.3462405,27.2698302 58.5263604,26.5894151 58.7571086,25.7618302 L60.8946938,18.0677925 L63.9898353,18.0677925 L66.0767921,25.7618302 C66.2530175,26.4182075 66.4263221,27.0986226 66.5957321,27.803566 L66.829888,28.8190377 L67.0742669,29.8448113 L67.1560511,29.8448113 L67.3799839,28.8190377 L67.5936938,27.7927736 C67.7699192,26.9656792 67.929593,26.2813396 68.0717417,25.7412264 L70.1285163,18.0677925 L72.8264204,18.0677925 Z" id="Fill-3" fill="#2A2B2A"></path>
                <path d="M72.8264204,18.0677925 L69.1105954,32.071 L65.2112429,32.071 L63.2771446,24.8896038 C63.1004324,24.2400943 62.8935379,23.3717925 62.6559743,22.2842075 L62.4627106,21.422283 L62.3707034,21.422283 L62.1672165,22.2940189 L61.9739528,23.1559434 C61.8313173,23.7377547 61.6789456,24.3185849 61.515864,24.8999057 L59.5306506,32.071 L55.6721902,32.071 L52.0683317,18.0677925 L54.7564995,18.0677925 L56.7616722,25.7515283 C56.8838616,26.2440566 57.0362333,26.9244717 57.2197609,27.7927736 L57.4339576,28.8190377 L57.6374444,29.8448113 L57.7284779,29.8448113 C57.8370367,29.3934906 57.9188209,29.051566 57.9728568,28.8190377 L58.2172357,27.803566 C58.3462405,27.2698302 58.5263604,26.5894151 58.7571086,25.7618302 L60.8946938,18.0677925 L63.9898353,18.0677925 L66.0767921,25.7618302 C66.2530175,26.4182075 66.4263221,27.0986226 66.5957321,27.803566 L66.829888,28.8190377 L67.0742669,29.8448113 L67.1560511,29.8448113 L67.3799839,28.8190377 L67.5936938,27.7927736 C67.7699192,26.9656792 67.929593,26.2813396 68.0717417,25.7412264 L70.1285163,18.0677925 L72.8264204,18.0677925 L72.8264204,18.0677925 Z" id="Stroke-5" stroke="#2A2B2A" stroke-width="0.52731" stroke-linecap="round" stroke-linejoin="round"></path>
                <polygon id="Fill-7" fill="#2A2B2A" points="79.3389719 20.3040868 79.3389719 23.9151434 85.8544444 23.9151434 85.8544444 25.8744642 79.3389719 25.8744642 79.3389719 29.8348038 86.271641 29.8348038 86.271641 32.0708038 76.7019192 32.0708038 76.7019192 18.0675962 86.2107897 18.0675962 86.2107897 20.3040868"></polygon>
                <polygon id="Stroke-9" stroke="#2A2B2A" stroke-width="0.52731" stroke-linecap="round" stroke-linejoin="round" points="79.3389719 20.3040868 79.3389719 23.9151434 85.8544444 23.9151434 85.8544444 25.8744642 79.3389719 25.8744642 79.3389719 29.8348038 86.271641 29.8348038 86.271641 32.0708038 76.7019192 32.0708038 76.7019192 18.0675962 86.2107897 18.0675962 86.2107897 20.3040868"></polygon>
                <path d="M101.468406,22.1504302 L98.8926914,22.1504302 C98.8790607,22.0204302 98.8717585,21.9247698 98.8717585,21.8634491 C98.8109072,21.0770717 98.6380894,20.5830717 98.3528185,20.3809585 C98.0680343,20.1793358 97.3962357,20.0782792 96.336936,20.0782792 C95.0887537,20.0782792 94.2723724,20.195034 93.8887657,20.4270717 C93.5056458,20.6596 93.3133556,21.1486943 93.3133556,21.8943547 C93.3133556,22.7763925 93.4696218,23.3062038 93.7821542,23.4842792 C94.0941998,23.6623547 95.1257513,23.7987321 96.8768089,23.894883 C98.9467273,24.0111472 100.285456,24.3084302 100.892996,24.7872226 C101.500049,25.2660151 101.803818,26.260883 101.803818,27.772317 C101.803818,29.633034 101.447473,30.8349208 100.735269,31.3789585 C100.022092,31.9220151 98.451641,32.1942792 96.0214827,32.1942792 C93.8361902,32.1942792 92.3854947,31.9274113 91.6693964,31.394166 C90.9532981,30.8604302 90.5954923,29.7802038 90.5954923,28.1520151 L90.5857561,27.638883 L93.1507609,27.638883 L93.1614707,27.9366566 C93.1614707,28.9148453 93.330394,29.5133358 93.669701,29.7321283 C94.0094947,29.9509208 94.9354084,30.060317 96.4489024,30.060317 C97.6299048,30.060317 98.3834875,29.9337509 98.7091638,29.6806189 C99.0353269,29.4274868 99.1979216,28.8432226 99.1979216,27.9263547 C99.1979216,27.2493736 99.0742717,26.8000151 98.8259983,26.5772981 C98.5782118,26.3550717 98.0441806,26.220166 97.2229312,26.1720906 L95.7673676,26.0798642 C93.5679576,25.9498642 92.1630223,25.6422792 91.5525619,25.1566189 C90.9416146,24.6709585 90.6358976,23.6280151 90.6358976,22.0272981 C90.6358976,20.3932226 91.0044132,19.3036755 91.7409576,18.7601283 C92.4770151,18.2160906 93.9481566,17.9448075 96.1538952,17.9448075 C98.2442597,17.9448075 99.6526026,18.1945057 100.378924,18.6934113 C101.105245,19.1928075 101.468406,20.1670717 101.468406,21.6171849 L101.468406,22.1504302 Z" id="Fill-11" fill="#2A2B2A"></path>
                <path d="M101.468406,22.1504302 L98.8926914,22.1504302 C98.8790607,22.0204302 98.8717585,21.9247698 98.8717585,21.8634491 C98.8109072,21.0770717 98.6380894,20.5830717 98.3528185,20.3809585 C98.0680343,20.1793358 97.3962357,20.0782792 96.336936,20.0782792 C95.0887537,20.0782792 94.2723724,20.195034 93.8887657,20.4270717 C93.5056458,20.6596 93.3133556,21.1486943 93.3133556,21.8943547 C93.3133556,22.7763925 93.4696218,23.3062038 93.7821542,23.4842792 C94.0941998,23.6623547 95.1257513,23.7987321 96.8768089,23.894883 C98.9467273,24.0111472 100.285456,24.3084302 100.892996,24.7872226 C101.500049,25.2660151 101.803818,26.260883 101.803818,27.772317 C101.803818,29.633034 101.447473,30.8349208 100.735269,31.3789585 C100.022092,31.9220151 98.451641,32.1942792 96.0214827,32.1942792 C93.8361902,32.1942792 92.3854947,31.9274113 91.6693964,31.394166 C90.9532981,30.8604302 90.5954923,29.7802038 90.5954923,28.1520151 L90.5857561,27.638883 L93.1507609,27.638883 L93.1614707,27.9366566 C93.1614707,28.9148453 93.330394,29.5133358 93.669701,29.7321283 C94.0094947,29.9509208 94.9354084,30.060317 96.4489024,30.060317 C97.6299048,30.060317 98.3834875,29.9337509 98.7091638,29.6806189 C99.0353269,29.4274868 99.1979216,28.8432226 99.1979216,27.9263547 C99.1979216,27.2493736 99.0742717,26.8000151 98.8259983,26.5772981 C98.5782118,26.3550717 98.0441806,26.220166 97.2229312,26.1720906 L95.7673676,26.0798642 C93.5679576,25.9498642 92.1630223,25.6422792 91.5525619,25.1566189 C90.9416146,24.6709585 90.6358976,23.6280151 90.6358976,22.0272981 C90.6358976,20.3932226 91.0044132,19.3036755 91.7409576,18.7601283 C92.4770151,18.2160906 93.9481566,17.9448075 96.1538952,17.9448075 C98.2442597,17.9448075 99.6526026,18.1945057 100.378924,18.6934113 C101.105245,19.1928075 101.468406,20.1670717 101.468406,21.6171849 L101.468406,22.1504302 L101.468406,22.1504302 Z" id="Stroke-13" stroke="#2A2B2A" stroke-width="0.52731" stroke-linecap="round" stroke-linejoin="round"></path>
                <polygon id="Fill-15" fill="#2A2B2A" points="112.093582 20.4478226 112.093582 32.0708038 109.457016 32.0708038 109.457016 20.4478226 105.445697 20.4478226 105.445697 18.0675962 116.247049 18.0675962 116.247049 20.4478226"></polygon>
                <polygon id="Stroke-17" stroke="#2A2B2A" stroke-width="0.52731" stroke-linecap="round" stroke-linejoin="round" points="112.093582 20.4478226 112.093582 32.0708038 109.457016 32.0708038 109.457016 20.4478226 105.445697 20.4478226 105.445697 18.0675962 116.247049 18.0675962 116.247049 20.4478226"></polygon>
                <polygon id="Fill-19" fill="#2A2B2A" points="134.168834 20.4478226 134.168834 32.0708038 131.532755 32.0708038 131.532755 20.4478226 127.521436 20.4478226 127.521436 18.0675962 138.322788 18.0675962 138.322788 20.4478226"></polygon>
                <polygon id="Stroke-21" stroke="#2A2B2A" stroke-width="0.52731" stroke-linecap="round" stroke-linejoin="round" points="134.168834 20.4478226 134.168834 32.0708038 131.532755 32.0708038 131.532755 20.4478226 127.521436 20.4478226 127.521436 18.0675962 138.322788 18.0675962 138.322788 20.4478226"></polygon>
                <path d="M148.143704,20.2221623 C146.372201,20.2221623 145.337241,20.4512566 145.038827,20.9089547 C144.740412,21.367634 144.590961,22.9541245 144.590961,25.6694075 C144.590961,27.6802377 144.765726,28.8909547 145.115256,29.3010679 C145.464786,29.7116717 146.49439,29.9167283 148.205042,29.9167283 C149.840239,29.9167283 150.821162,29.6856717 151.147325,29.2245396 C151.473002,28.7624264 151.635596,27.3623509 151.635596,25.0228415 C151.635596,22.6774453 151.481277,21.2906151 151.17264,20.8633321 C150.863515,20.4360491 149.854357,20.2221623 148.143704,20.2221623 M148.347678,17.9444642 C150.871791,17.9444642 152.497251,18.3668415 153.224059,19.2111057 C153.949894,20.0563509 154.313054,21.9455208 154.313054,24.8795962 C154.313054,28.086917 153.948433,30.1080491 153.218704,30.9425019 C152.489462,31.7769547 150.722827,32.1939358 147.919771,32.1939358 C145.395172,32.1939358 143.762896,31.7818604 143.022944,30.9582 C142.283479,30.1335585 141.913503,28.3199358 141.913503,25.5153698 C141.913503,22.1780491 142.276177,20.0818604 143.002498,19.2268038 C143.729306,18.3722377 145.510546,17.9444642 148.347678,17.9444642" id="Fill-23" fill="#2A2B2A"></path>
                <path d="M148.143704,20.2221623 C146.372201,20.2221623 145.337241,20.4512566 145.038827,20.9089547 C144.740412,21.367634 144.590961,22.9541245 144.590961,25.6694075 C144.590961,27.6802377 144.765726,28.8909547 145.115256,29.3010679 C145.464786,29.7116717 146.49439,29.9167283 148.205042,29.9167283 C149.840239,29.9167283 150.821162,29.6856717 151.147325,29.2245396 C151.473002,28.7624264 151.635596,27.3623509 151.635596,25.0228415 C151.635596,22.6774453 151.481277,21.2906151 151.17264,20.8633321 C150.863515,20.4360491 149.854357,20.2221623 148.143704,20.2221623 L148.143704,20.2221623 Z M148.347678,17.9444642 C150.871791,17.9444642 152.497251,18.3668415 153.224059,19.2111057 C153.949894,20.0563509 154.313054,21.9455208 154.313054,24.8795962 C154.313054,28.086917 153.948433,30.1080491 153.218704,30.9425019 C152.489462,31.7769547 150.722827,32.1939358 147.919771,32.1939358 C145.395172,32.1939358 143.762896,31.7818604 143.022944,30.9582 C142.283479,30.1335585 141.913503,28.3199358 141.913503,25.5153698 C141.913503,22.1780491 142.276177,20.0818604 143.002498,19.2268038 C143.729306,18.3722377 145.510546,17.9444642 148.347678,17.9444642 L148.347678,17.9444642 Z" id="Stroke-25" stroke="#2A2B2A" stroke-width="0.52731" stroke-linecap="round" stroke-linejoin="round"></path>
                <path d="M167.951782,18.0677925 L170.588835,18.0677925 L170.588835,27.3826604 C170.588835,29.3316792 170.216912,30.6213774 169.474039,31.250283 C168.731166,31.8791887 167.21183,32.1941321 164.918466,32.1941321 C162.495123,32.1941321 160.907147,31.8963585 160.153564,31.3017925 C159.400468,30.7067358 159.023677,29.4513774 159.023677,27.5366981 L159.023677,18.0677925 L161.660243,18.0677925 L161.660243,27.5366981 C161.660243,28.5693396 161.84377,29.2242453 162.210339,29.5014151 C162.576907,29.7780943 163.438562,29.916434 164.796276,29.916434 C166.187094,29.916434 167.061406,29.7766226 167.417264,29.4960189 C167.774096,29.2159057 167.951782,28.5281321 167.951782,27.4341698 L167.951782,18.0677925 Z" id="Fill-27" fill="#2A2B2A"></path>
                <path d="M167.951782,18.0677925 L170.588835,18.0677925 L170.588835,27.3826604 C170.588835,29.3316792 170.216912,30.6213774 169.474039,31.250283 C168.731166,31.8791887 167.21183,32.1941321 164.918466,32.1941321 C162.495123,32.1941321 160.907147,31.8963585 160.153564,31.3017925 C159.400468,30.7067358 159.023677,29.4513774 159.023677,27.5366981 L159.023677,18.0677925 L161.660243,18.0677925 L161.660243,27.5366981 C161.660243,28.5693396 161.84377,29.2242453 162.210339,29.5014151 C162.576907,29.7780943 163.438562,29.916434 164.796276,29.916434 C166.187094,29.916434 167.061406,29.7766226 167.417264,29.4960189 C167.774096,29.2159057 167.951782,28.5281321 167.951782,27.4341698 L167.951782,18.0677925 L167.951782,18.0677925 Z" id="Stroke-29" stroke="#2A2B2A" stroke-width="0.52731" stroke-linecap="round" stroke-linejoin="round"></path>
                <path d="M178.577445,25.1153623 L182.364344,25.1153623 C183.267378,25.1153623 183.866155,24.9529849 184.161649,24.6282302 C184.456656,24.3034755 184.604159,23.6520038 184.604159,22.6738151 C184.604159,21.6750226 184.477102,21.0309094 184.2225,20.7400038 C183.967898,20.4490981 183.409526,20.3038906 182.547872,20.3038906 L178.577445,20.3038906 L178.577445,25.1153623 Z M175.940879,32.0710981 L175.940879,18.0678906 L182.792251,18.0678906 C184.495601,18.0678906 185.669301,18.3651736 186.314812,18.9602302 C186.959349,19.5552868 187.281618,20.6320792 187.281618,22.1915887 C187.281618,23.6073623 187.120483,24.5752491 186.798215,25.0947585 C186.475946,25.6147585 185.815831,25.9738528 184.817869,26.1720415 L184.817869,26.2647585 C186.358625,26.3604189 187.128759,27.2664943 187.128759,28.9829849 L187.128759,32.0710981 L184.492193,32.0710981 L184.492193,29.5167208 C184.492193,28.0734755 183.786318,27.3518528 182.375054,27.3518528 L178.577445,27.3518528 L178.577445,32.0710981 L175.940879,32.0710981 Z" id="Fill-31" fill="#2A2B2A"></path>
                <path d="M178.577445,25.1153623 L182.364344,25.1153623 C183.267378,25.1153623 183.866155,24.9529849 184.161649,24.6282302 C184.456656,24.3034755 184.604159,23.6520038 184.604159,22.6738151 C184.604159,21.6750226 184.477102,21.0309094 184.2225,20.7400038 C183.967898,20.4490981 183.409526,20.3038906 182.547872,20.3038906 L178.577445,20.3038906 L178.577445,25.1153623 L178.577445,25.1153623 Z M175.940879,32.0710981 L175.940879,18.0678906 L182.792251,18.0678906 C184.495601,18.0678906 185.669301,18.3651736 186.314812,18.9602302 C186.959349,19.5552868 187.281618,20.6320792 187.281618,22.1915887 C187.281618,23.6073623 187.120483,24.5752491 186.798215,25.0947585 C186.475946,25.6147585 185.815831,25.9738528 184.817869,26.1720415 L184.817869,26.2647585 C186.358625,26.3604189 187.128759,27.2664943 187.128759,28.9829849 L187.128759,32.0710981 L184.492193,32.0710981 L184.492193,29.5167208 C184.492193,28.0734755 183.786318,27.3518528 182.375054,27.3518528 L178.577445,27.3518528 L178.577445,32.0710981 L175.940879,32.0710981 L175.940879,32.0710981 Z" id="Stroke-33" stroke="#2A2B2A" stroke-width="0.52731" stroke-linecap="round" stroke-linejoin="round"></path>
                <path d="M202.610406,22.1504302 L200.035178,22.1504302 C200.021547,22.0204302 200.014732,21.9247698 200.014732,21.8634491 C199.953394,21.0770717 199.780576,20.5830717 199.495792,20.3809585 C199.210521,20.1793358 198.538722,20.0782792 197.479909,20.0782792 C196.23124,20.0782792 195.414859,20.195034 195.031252,20.4270717 C194.648132,20.6596 194.456329,21.1486943 194.456329,21.8943547 C194.456329,22.7763925 194.612108,23.3062038 194.924641,23.4842792 C195.236686,23.6623547 196.268238,23.7987321 198.019295,23.894883 C200.089214,24.0111472 201.427943,24.3084302 202.034995,24.7872226 C202.642535,25.2660151 202.946305,26.260883 202.946305,27.772317 C202.946305,29.633034 202.590446,30.8349208 201.877756,31.3789585 C201.165065,31.9220151 199.593641,32.1942792 197.163969,32.1942792 C194.978676,32.1942792 193.527981,31.9274113 192.811883,31.394166 C192.095784,30.8604302 191.737979,29.7802038 191.737979,28.1520151 L191.728242,27.638883 L194.293247,27.638883 L194.30347,27.9366566 C194.30347,28.9148453 194.47288,29.5133358 194.812187,29.7321283 C195.151981,29.9509208 196.077895,30.060317 197.591389,30.060317 C198.772391,30.060317 199.525974,29.9337509 199.85165,29.6806189 C200.177326,29.4274868 200.340408,28.8432226 200.340408,27.9263547 C200.340408,27.2493736 200.216271,26.8000151 199.968485,26.5772981 C199.720698,26.3550717 199.186667,26.220166 198.365418,26.1720906 L196.909367,26.0798642 C194.710444,25.9498642 193.305995,25.6422792 192.695048,25.1566189 C192.084101,24.6709585 191.778871,23.6280151 191.778871,22.0272981 C191.778871,20.3932226 192.1469,19.3036755 192.883444,18.7601283 C193.619501,18.2160906 195.090643,17.9448075 197.296382,17.9448075 C199.386746,17.9448075 200.795089,18.1945057 201.52141,18.6934113 C202.247245,19.1928075 202.610406,20.1670717 202.610406,21.6171849 L202.610406,22.1504302 Z" id="Fill-35" fill="#2A2B2A"></path>
                <path d="M202.610406,22.1504302 L200.035178,22.1504302 C200.021547,22.0204302 200.014732,21.9247698 200.014732,21.8634491 C199.953394,21.0770717 199.780576,20.5830717 199.495792,20.3809585 C199.210521,20.1793358 198.538722,20.0782792 197.479909,20.0782792 C196.23124,20.0782792 195.414859,20.195034 195.031252,20.4270717 C194.648132,20.6596 194.456329,21.1486943 194.456329,21.8943547 C194.456329,22.7763925 194.612108,23.3062038 194.924641,23.4842792 C195.236686,23.6623547 196.268238,23.7987321 198.019295,23.894883 C200.089214,24.0111472 201.427943,24.3084302 202.034995,24.7872226 C202.642535,25.2660151 202.946305,26.260883 202.946305,27.772317 C202.946305,29.633034 202.590446,30.8349208 201.877756,31.3789585 C201.165065,31.9220151 199.593641,32.1942792 197.163969,32.1942792 C194.978676,32.1942792 193.527981,31.9274113 192.811883,31.394166 C192.095784,30.8604302 191.737979,29.7802038 191.737979,28.1520151 L191.728242,27.638883 L194.293247,27.638883 L194.30347,27.9366566 C194.30347,28.9148453 194.47288,29.5133358 194.812187,29.7321283 C195.151981,29.9509208 196.077895,30.060317 197.591389,30.060317 C198.772391,30.060317 199.525974,29.9337509 199.85165,29.6806189 C200.177326,29.4274868 200.340408,28.8432226 200.340408,27.9263547 C200.340408,27.2493736 200.216271,26.8000151 199.968485,26.5772981 C199.720698,26.3550717 199.186667,26.220166 198.365418,26.1720906 L196.909367,26.0798642 C194.710444,25.9498642 193.305995,25.6422792 192.695048,25.1566189 C192.084101,24.6709585 191.778871,23.6280151 191.778871,22.0272981 C191.778871,20.3932226 192.1469,19.3036755 192.883444,18.7601283 C193.619501,18.2160906 195.090643,17.9448075 197.296382,17.9448075 C199.386746,17.9448075 200.795089,18.1945057 201.52141,18.6934113 C202.247245,19.1928075 202.610406,20.1670717 202.610406,21.6171849 L202.610406,22.1504302 L202.610406,22.1504302 Z" id="Stroke-37" stroke="#2A2B2A" stroke-width="0.52731" stroke-linecap="round" stroke-linejoin="round"></path>
            </g>
        </g>
    </g>
</svg>