<?xml version="1.0" encoding="UTF-8"?>
<svg width="24px" height="24px" viewBox="0 0 24 24" version="1.1" xmlns="http://www.w3.org/2000/svg" xmlns:xlink="http://www.w3.org/1999/xlink">
    <!-- Generator: Sketch 41.2 (35397) - http://www.bohemiancoding.com/sketch -->
    <title>Fill 1</title>
    <desc>Created with Sketch.</desc>
    <defs></defs>
    <g id="Page-1" stroke="none" stroke-width="1" fill="none" fill-rule="evenodd">
        <g id="Frontpage" transform="translate(-1030.000000, -40.000000)" fill="#2A2B2A">
            <g id="Page-1" transform="translate(1030.000000, 40.000000)">
                <path d="M13.5437,22.8959 C14.6597,21.2779 15.5417,19.9999 16.1807,17.9999 L21.2037,17.9999 C19.5067,20.9999 16.7457,22.4339 13.5437,22.8959 L13.5437,22.8959 Z M11.7637,23.0009 C10.5367,21.3359 9.5837,19.9999 8.8847,17.9999 L15.1237,17.9999 C14.4247,19.9999 13.4727,21.3329 12.2467,22.9969 C12.1527,22.9999 12.0617,23.0109 11.9677,23.0109 C11.8987,23.0109 11.8327,23.0019 11.7637,23.0009 L11.7637,23.0009 Z M2.8417,17.9999 L7.8277,17.9999 C8.4677,19.9999 9.3507,21.2839 10.4697,22.9039 C7.2937,22.4569 4.5457,20.9999 2.8417,17.9999 L2.8417,17.9999 Z M10.3307,1.1439 C9.3357,2.3689 8.5397,3.9999 7.9367,4.9999 L3.3777,4.9999 C5.0477,2.9999 7.4857,1.5469 10.3307,1.1439 L10.3307,1.1439 Z M12.2767,1.0249 C13.4127,2.2819 14.3147,3.9999 14.9937,4.9999 L9.0157,4.9999 C9.6967,3.9999 10.6007,2.2759 11.7397,1.0159 C11.8277,1.0139 11.9157,1.0109 12.0047,1.0109 C12.0967,1.0109 12.1857,1.0219 12.2767,1.0249 L12.2767,1.0249 Z M20.4737,4.9999 L16.0727,4.9999 C15.4737,3.9999 14.6847,2.3839 13.6967,1.1649 C16.4077,1.5849 18.7977,2.9999 20.4737,4.9999 L20.4737,4.9999 Z M17.4577,10.9999 C17.4077,8.9999 17.0837,7.9999 16.4847,5.9999 L21.2067,5.9999 C22.1677,6.9999 22.7867,8.9999 22.9507,10.9999 L17.4577,10.9999 Z M17.4527,11.9999 L22.9987,11.9999 C22.9957,13.9999 22.5517,14.9999 21.7817,16.9999 L16.5377,16.9999 C17.0927,14.9999 17.3987,13.9999 17.4527,11.9999 L17.4527,11.9999 Z M7.5087,11.9999 L16.5007,11.9999 C16.4407,13.9999 16.1157,14.9999 15.5167,16.9999 L8.4927,16.9999 C7.8927,14.9999 7.5677,13.9999 7.5087,11.9999 L7.5087,11.9999 Z M8.5547,5.9999 L15.4547,5.9999 C16.1087,7.9999 16.4497,8.9999 16.5037,10.9999 L7.5057,10.9999 C7.5597,8.9999 7.9007,7.9999 8.5547,5.9999 L8.5547,5.9999 Z M6.5517,10.9999 L1.0367,10.9999 C1.1637,8.9999 1.7347,6.9999 2.6607,5.9999 L7.5247,5.9999 C6.9267,7.9999 6.6017,8.9999 6.5517,10.9999 L6.5517,10.9999 Z M1.0117,11.9999 L6.5557,11.9999 C6.6107,13.9999 6.9157,14.9999 7.4707,16.9999 L2.2647,16.9999 C1.4937,14.9999 1.0467,13.9999 1.0117,11.9999 L1.0117,11.9999 Z M12.0047,-0.0001 C11.8297,-0.0001 11.6567,0.0029 11.4857,0.0109 C4.9377,0.2749 -0.0003,5.3209 -0.0003,11.7499 C-0.0003,18.5039 5.3687,24.0009 11.9677,24.0009 C18.6027,24.0009 23.9997,18.5969 23.9997,11.9559 C23.9997,5.3629 18.6187,-0.0001 12.0047,-0.0001 L12.0047,-0.0001 Z" id="Fill-1"></path>
            </g>
        </g>
    </g>
</svg>
