<?xml version="1.0" encoding="UTF-8"?>
<svg width="30px" height="30px" viewBox="0 0 30 30" version="1.1" xmlns="http://www.w3.org/2000/svg" xmlns:xlink="http://www.w3.org/1999/xlink">
    <!-- Generator: Sketch 41.2 (35397) - http://www.bohemiancoding.com/sketch -->
    <title>Fill 1</title>
    <desc>Created with Sketch.</desc>
    <defs></defs>
    <g id="Page-1" stroke="none" stroke-width="1" fill="none" fill-rule="evenodd">
        <g id="Frontpage" transform="translate(-1279.000000, -35.000000)" fill="#56B881">
            <g id="Page-1" transform="translate(1279.000000, 35.000000)">
                <path d="M21.875,18.28125 L21.5625,18.82825 L30,27.34375 L27.344,29.99975 L18.9065,21.48425 L18.3595,21.87475 C16.276,23.17725 14.1145,23.82825 11.875,23.82825 C8.5935,23.82825 5.7945,22.65625 3.4765,20.31225 C1.159,17.96875 0,15.15625 0,11.87475 C0,8.59375 1.159,5.79425 3.4765,3.47675 C5.7945,1.15875 8.5935,-0.00025 11.875,-0.00025 C15.1565,-0.00025 17.9555,1.15875 20.2735,3.47675 C22.591,5.79425 23.75,8.59375 23.75,11.87475 C23.75,14.16675 23.125,16.30225 21.875,18.28125 M18.5155,5.23425 C16.6925,3.41125 14.479,2.50025 11.875,2.50025 C9.271,2.50025 7.0575,3.41125 5.2345,5.23425 C3.4115,7.05725 2.5,9.27075 2.5,11.87475 C2.5,14.47925 3.4115,16.69275 5.2345,18.51575 C7.0575,20.33875 9.271,21.24975 11.875,21.24975 C14.479,21.24975 16.6925,20.33875 18.5155,18.51575 C20.3905,16.64075 21.328,14.42725 21.328,11.87475 C21.328,9.32275 20.3905,7.10925 18.5155,5.23425" id="Fill-1"></path>
            </g>
        </g>
    </g>
</svg>
