<?xml version="1.0" encoding="UTF-8" standalone="no"?>
<svg width="38px" height="21px" viewBox="0 0 38 21" version="1.1" xmlns="http://www.w3.org/2000/svg" xmlns:xlink="http://www.w3.org/1999/xlink">
    <!-- Generator: Sketch 39.1 (31720) - http://www.bohemiancoding.com/sketch -->
    <title>Page 1 Copy</title>
    <desc>Created with Sketch.</desc>
    <defs>
        <polygon id="path-1" points="0 21 38 21 38 0 0 0"></polygon>
    </defs>
    <g id="Page-1" stroke="none" stroke-width="1" fill="none" fill-rule="evenodd">
        <g id="Frontpage" transform="translate(-701.000000, -759.000000)">
            <g id="Page-1-Copy" transform="translate(701.000000, 759.000000)">
                <mask id="mask-2" fill="white">
                    <use xlink:href="#path-1"></use>
                </mask>
                <g id="Clip-2"></g>
                <path d="M19,21 C18.7138824,21 18.4277647,20.8856667 18.2087059,20.6593333 L0.326352941,1.99266667 C-0.109529412,1.53533333 -0.109529412,0.798 0.326352941,0.340666667 C0.764470588,-0.114333333 1.47082353,-0.114333333 1.90894118,0.340666667 L19,18.1836667 L36.0910588,0.340666667 C36.5291765,-0.114333333 37.2355294,-0.114333333 37.6736471,0.340666667 C38.1095294,0.798 38.1095294,1.53533333 37.6736471,1.99266667 L19.7912941,20.6593333 C19.5722353,20.8856667 19.2861176,21 19,21" id="Fill-1" fill="#FFFFFF" mask="url(#mask-2)"></path>
            </g>
        </g>
    </g>
</svg>