<?xml version="1.0" encoding="UTF-8"?>
<svg width="11px" height="20px" viewBox="0 0 11 20" version="1.1" xmlns="http://www.w3.org/2000/svg" xmlns:xlink="http://www.w3.org/1999/xlink">
    <!-- Generator: Sketch 47.1 (45422) - http://www.bohemiancoding.com/sketch -->
    <title>Page 1 Copy 9</title>
    <desc>Created with Sketch.</desc>
    <defs>
        <polygon id="path-1" points="0 11 20 11 20 0 0 0"></polygon>
    </defs>
    <g id="Page-1" stroke="none" stroke-width="1" fill="none" fill-rule="evenodd">
        <g id="Frontpage-When" transform="translate(-650.000000, -692.000000)">
            <g id="Page-1-Copy-9" transform="translate(655.500000, 702.000000) rotate(-270.000000) translate(-655.500000, -702.000000) translate(645.500000, 696.500000)">
                <mask id="mask-2" fill="white">
                    <use xlink:href="#path-1"></use>
                </mask>
                <g id="Clip-2"></g>
                <path d="M10,11 C9.84941176,11 9.69882353,10.9401111 9.58352941,10.8215556 L0.171764706,1.04377778 C-0.0576470588,0.804222222 -0.0576470588,0.418 0.171764706,0.178444444 C0.402352941,-0.0598888889 0.774117647,-0.0598888889 1.00470588,0.178444444 L10,9.52477778 L18.9952941,0.178444444 C19.2258824,-0.0598888889 19.5976471,-0.0598888889 19.8282353,0.178444444 C20.0576471,0.418 20.0576471,0.804222222 19.8282353,1.04377778 L10.4164706,10.8215556 C10.3011765,10.9401111 10.1505882,11 10,11" id="Fill-1" fill="#56B881" mask="url(#mask-2)"></path>
            </g>
        </g>
    </g>
</svg>