<?xml version="1.0" encoding="UTF-8" standalone="no"?>
<svg width="31px" height="29px" viewBox="0 0 31 29" version="1.1" xmlns="http://www.w3.org/2000/svg" xmlns:xlink="http://www.w3.org/1999/xlink">
    <!-- Generator: Sketch 39.1 (31720) - http://www.bohemiancoding.com/sketch -->
    <title>Facebook</title>
    <desc>Created with Sketch.</desc>
    <defs></defs>
    <g id="Page-1" stroke="none" stroke-width="1" fill="none" fill-rule="evenodd">
        <g id="Frontpage" transform="translate(-663.000000, -3443.000000)" fill="#E55E5E">
            <g id="Group-6" transform="translate(544.000000, 3443.000000)">
                <path d="M149.099378,27.3828947 C149.099378,28.2663158 148.374636,28.9831579 147.480494,28.9831579 L140.00534,28.9831579 L140.00534,17.7592105 L143.818428,17.7592105 L144.389752,13.3855263 L140.00534,13.3855263 L140.00534,10.5923684 C140.00534,9.32605263 140.361719,8.46315789 142.199544,8.46315789 L144.543969,8.46236842 L144.543969,4.54973684 C144.13805,4.49684211 142.746896,4.37763158 141.128012,4.37763158 C137.748012,4.37763158 135.43395,6.41605263 135.43395,10.1597368 L135.43395,13.3855263 L131.611274,13.3855263 L131.611274,17.7592105 L135.43395,17.7592105 L135.43395,28.9831579 L121.384177,28.9831579 C120.490035,28.9831579 119.765293,28.2663158 119.765293,27.3828947 L119.765293,1.60026316 C119.765293,0.716052632 120.490035,0 121.384177,0 L147.480494,0 C148.374636,0 149.099378,0.716052632 149.099378,1.60026316 L149.099378,27.3828947" id="Facebook"></path>
            </g>
        </g>
    </g>
</svg>